G04*
G04 #@! TF.GenerationSoftware,Altium Limited,Altium Designer,24.0.1 (36)*
G04*
G04 Layer_Color=16711935*
%FSLAX44Y44*%
%MOMM*%
G71*
G04*
G04 #@! TF.SameCoordinates,8AA054D9-8240-454B-BF93-844602D28769*
G04*
G04*
G04 #@! TF.FilePolarity,Negative*
G04*
G01*
G75*
%ADD14C,1.9032*%
%ADD15C,2.2532*%
%ADD16C,1.5500*%
%ADD17R,1.5500X1.5500*%
%ADD18C,2.0500*%
%ADD19R,2.0500X2.0500*%
%ADD20R,1.8032X1.8032*%
%ADD21C,1.8032*%
D14*
X545000Y410000D02*
D03*
X25000Y25000D02*
D03*
Y410000D02*
D03*
X545000Y25000D02*
D03*
X544830Y196850D02*
D03*
Y229392D02*
D03*
Y260350D02*
D03*
X138073Y107196D02*
D03*
X203200Y107950D02*
D03*
X68580Y71120D02*
D03*
D15*
X139700Y298590D02*
D03*
Y163690D02*
D03*
X68440Y378460D02*
D03*
X203340D02*
D03*
X55880Y297320D02*
D03*
Y162420D02*
D03*
X220980Y163690D02*
D03*
Y298590D02*
D03*
D16*
X353060Y151130D02*
D03*
X342900Y358210D02*
D03*
D17*
X353060Y76130D02*
D03*
X342900Y283210D02*
D03*
D18*
X478470Y297230D02*
D03*
Y322580D02*
D03*
D19*
Y347930D02*
D03*
D20*
X483870Y160020D02*
D03*
D21*
Y134620D02*
D03*
Y109220D02*
D03*
M02*
