G04*
G04 #@! TF.GenerationSoftware,Altium Limited,Altium Designer,24.0.1 (36)*
G04*
G04 Layer_Physical_Order=1*
G04 Layer_Color=255*
%FSLAX44Y44*%
%MOMM*%
G71*
G04*
G04 #@! TF.SameCoordinates,8AA054D9-8240-454B-BF93-844602D28769*
G04*
G04*
G04 #@! TF.FilePolarity,Positive*
G04*
G01*
G75*
%ADD16C,1.5500*%
%ADD17R,1.5500X1.5500*%
%ADD18C,2.0500*%
%ADD19R,2.0500X2.0500*%
%ADD22C,0.4000*%
%ADD23C,0.3810*%
%ADD24C,1.7000*%
%ADD25C,2.0500*%
%ADD26R,1.6000X1.6000*%
%ADD27C,1.6000*%
D16*
X353060Y151130D02*
D03*
X342900Y358210D02*
D03*
D17*
X353060Y76130D02*
D03*
X342900Y283210D02*
D03*
D18*
X478470Y297230D02*
D03*
Y322580D02*
D03*
D19*
Y347930D02*
D03*
D22*
X203200Y107950D02*
X309880D01*
X353060Y151130D01*
X138886Y108010D02*
Y162876D01*
X55880Y162420D02*
X68580Y149720D01*
Y71120D02*
Y149720D01*
D23*
X138886Y162876D02*
X139700Y163690D01*
X138073Y107196D02*
X138886Y108010D01*
X32712Y165100D02*
X53200D01*
X20320Y177492D02*
X32712Y165100D01*
X53200D02*
X55880Y162420D01*
X139700Y163690D02*
X220980D01*
X203340Y316230D02*
Y378460D01*
Y316230D02*
X220980Y298590D01*
X544830Y170180D02*
Y196850D01*
X483870Y109220D02*
X544830Y170180D01*
X495300Y201930D02*
X522762Y229392D01*
X483870Y190500D02*
X495300Y201930D01*
X452120Y245110D02*
X495300Y201930D01*
X452120Y245110D02*
Y296230D01*
X478470Y322580D01*
Y297230D02*
X507950D01*
X544830Y260350D01*
X522762Y229392D02*
X544830D01*
X483870Y160020D02*
Y190500D01*
X477250Y346710D02*
X478470Y347930D01*
X354400Y346710D02*
X477250D01*
X342900Y358210D02*
X354400Y346710D01*
X342900Y264160D02*
Y283210D01*
Y264160D02*
X353060Y254000D01*
Y151130D02*
Y254000D01*
X363212Y160020D02*
X483870D01*
X353060Y151130D02*
X354322D01*
X363212Y160020D01*
X411550Y134620D02*
X483870D01*
X353060Y76130D02*
X411550Y134620D01*
X20320Y177492D02*
Y330340D01*
X68440Y378460D01*
X322650D02*
X342900Y358210D01*
X203340Y378460D02*
X322650D01*
X203200Y107950D02*
X204470Y106680D01*
X95250Y297955D02*
X139065D01*
X56515D02*
X95250D01*
X308610Y45720D02*
X339020Y76130D01*
X353060D01*
X132080Y45720D02*
X308610D01*
X95250Y82550D02*
X132080Y45720D01*
X95250Y82550D02*
Y297955D01*
X137795Y107315D02*
X138073Y107196D01*
X139065Y297955D02*
X139700Y298590D01*
X55880Y297320D02*
X56515Y297955D01*
X543585Y259105D02*
X544830Y260350D01*
D24*
X545000Y410000D02*
D03*
X25000Y25000D02*
D03*
Y410000D02*
D03*
X545000Y25000D02*
D03*
X544830Y196850D02*
D03*
Y229392D02*
D03*
Y260350D02*
D03*
X138073Y107196D02*
D03*
X203200Y107950D02*
D03*
X68580Y71120D02*
D03*
D25*
X139700Y298590D02*
D03*
Y163690D02*
D03*
X68440Y378460D02*
D03*
X203340D02*
D03*
X55880Y297320D02*
D03*
Y162420D02*
D03*
X220980Y163690D02*
D03*
Y298590D02*
D03*
D26*
X483870Y160020D02*
D03*
D27*
Y134620D02*
D03*
Y109220D02*
D03*
M02*
