M48
;Layer_Color=9474304
;FILE_FORMAT=4:4
METRIC,LZ
;TYPE=PLATED
T01F00S00C1.0000
T02F00S00C1.2000
T03F00S00C1.3500
T04F00S00C1.5500
%
T01
X0035306Y0007613
Y0015113
X0048387Y0016002
Y0013462
Y0010922
X0054483Y0019685
Y00229392
Y0026035
X003429Y0028321
Y0035821
X002032Y0010795
X00138073Y00107196
X0006858Y0007112
T02
X00545Y00025
X00025
Y0041
X00545
T03
X0047847Y0029723
Y0032258
Y0034793
T04
X0005588Y0016242
X001397Y0016369
X0022098
Y0029859
X001397
X0005588Y0029732
X0006844Y0037846
X0020334
M30
