%TF.GenerationSoftware,Altium Limited,Altium Designer,24.0.1 (36)*%
G04 Layer_Color=8388736*
%FSLAX45Y45*%
%MOMM*%
%TF.SameCoordinates,E673BBFC-20C5-4476-8311-46C70BBC61D0*%
%TF.FilePolarity,Negative*%
%TF.FileFunction,Soldermask,Top*%
%TF.Part,Single*%
G01*
G75*
%TA.AperFunction,ComponentPad*%
%ADD14C,1.55000*%
%ADD15R,1.55000X1.55000*%
%ADD16C,2.05000*%
%ADD17R,2.05000X2.05000*%
%TA.AperFunction,ViaPad*%
%ADD24C,1.90320*%
%TA.AperFunction,ComponentPad*%
%ADD25C,2.25320*%
%ADD26R,1.80320X1.80320*%
%ADD27C,1.80320*%
D14*
X3530600Y1511300D02*
D03*
X3429000Y3582100D02*
D03*
D15*
X3530600Y761300D02*
D03*
X3429000Y2832100D02*
D03*
D16*
X4784700Y2972300D02*
D03*
Y3225800D02*
D03*
D17*
Y3479300D02*
D03*
D24*
X5450000Y4100000D02*
D03*
X250000Y250000D02*
D03*
Y4100000D02*
D03*
X5450000Y250000D02*
D03*
X5448300Y1968500D02*
D03*
Y2293923D02*
D03*
Y2603500D02*
D03*
X1380728Y1071960D02*
D03*
X2032000Y1079500D02*
D03*
X685800Y711200D02*
D03*
D25*
X1397000Y2985900D02*
D03*
Y1636900D02*
D03*
X684400Y3784600D02*
D03*
X2033400D02*
D03*
X558800Y2973200D02*
D03*
Y1624200D02*
D03*
X2209800Y1636900D02*
D03*
Y2985900D02*
D03*
D26*
X4838700Y1600200D02*
D03*
D27*
Y1346200D02*
D03*
Y1092200D02*
D03*
%TF.MD5,6f88d6051954c406439c9bd332f2a02f*%
M02*
