%TF.GenerationSoftware,Altium Limited,Altium Designer,24.0.1 (36)*%
G04 Layer_Physical_Order=1*
G04 Layer_Color=255*
%FSLAX45Y45*%
%MOMM*%
%TF.SameCoordinates,E673BBFC-20C5-4476-8311-46C70BBC61D0*%
%TF.FilePolarity,Positive*%
%TF.FileFunction,Copper,L1,Top,Signal*%
%TF.Part,Single*%
G01*
G75*
%TA.AperFunction,Conductor*%
%ADD10C,0.40000*%
%ADD11C,0.38100*%
%TA.AperFunction,ViaPad*%
%ADD12C,1.70000*%
%TA.AperFunction,ComponentPad*%
%ADD13C,2.05000*%
%ADD14C,1.55000*%
%ADD15R,1.55000X1.55000*%
%ADD16C,2.05000*%
%ADD17R,2.05000X2.05000*%
%ADD18R,1.60000X1.60000*%
%ADD19C,1.60000*%
D10*
X2032000Y1079500D02*
X3098800D01*
X3530600Y1511300D01*
X1388864Y1080095D02*
Y1628764D01*
X558800Y1624200D02*
X685800Y1497200D01*
Y711200D02*
Y1497200D01*
D11*
X1388864Y1628764D02*
X1397000Y1636900D01*
X1380728Y1071960D02*
X1388864Y1080095D01*
X327118Y1651000D02*
X532000D01*
X203200Y1774918D02*
X327118Y1651000D01*
X532000D02*
X558800Y1624200D01*
X1397000Y1636900D02*
X2209800D01*
X2033400Y3162300D02*
Y3784600D01*
Y3162300D02*
X2209800Y2985900D01*
X5448300Y1701800D02*
Y1968500D01*
X4838700Y1092200D02*
X5448300Y1701800D01*
X4953000Y2019300D02*
X5227623Y2293923D01*
X4838700Y1905000D02*
X4953000Y2019300D01*
X4521200Y2451100D02*
X4953000Y2019300D01*
X4521200Y2451100D02*
Y2962300D01*
X4784700Y3225800D01*
Y2972300D02*
X5079500D01*
X5448300Y2603500D01*
X5227623Y2293923D02*
X5448300D01*
X4838700Y1600200D02*
Y1905000D01*
X4772500Y3467100D02*
X4784700Y3479300D01*
X3544000Y3467100D02*
X4772500D01*
X3429000Y3582100D02*
X3544000Y3467100D01*
X3429000Y2641600D02*
Y2832100D01*
Y2641600D02*
X3530600Y2540000D01*
Y1511300D02*
Y2540000D01*
X3632124Y1600200D02*
X4838700D01*
X3530600Y1511300D02*
X3543224D01*
X3632124Y1600200D01*
X4115500Y1346200D02*
X4838700D01*
X3530600Y761300D02*
X4115500Y1346200D01*
X203200Y1774918D02*
Y3303400D01*
X684400Y3784600D01*
X3226500D02*
X3429000Y3582100D01*
X2033400Y3784600D02*
X3226500D01*
X2032000Y1079500D02*
X2044700Y1066800D01*
X952500Y2979550D02*
X1390650D01*
X565150D02*
X952500D01*
X3086100Y457200D02*
X3390200Y761300D01*
X3530600D01*
X1320800Y457200D02*
X3086100D01*
X952500Y825500D02*
X1320800Y457200D01*
X952500Y825500D02*
Y2979550D01*
X1377950Y1073150D02*
X1380728Y1071960D01*
X1390650Y2979550D02*
X1397000Y2985900D01*
X558800Y2973200D02*
X565150Y2979550D01*
X5435850Y2591050D02*
X5448300Y2603500D01*
D12*
X5450000Y4100000D02*
D03*
X250000Y250000D02*
D03*
Y4100000D02*
D03*
X5450000Y250000D02*
D03*
X5448300Y1968500D02*
D03*
Y2293923D02*
D03*
Y2603500D02*
D03*
X1380728Y1071960D02*
D03*
X2032000Y1079500D02*
D03*
X685800Y711200D02*
D03*
D13*
X1397000Y2985900D02*
D03*
Y1636900D02*
D03*
X684400Y3784600D02*
D03*
X2033400D02*
D03*
X558800Y2973200D02*
D03*
Y1624200D02*
D03*
X2209800Y1636900D02*
D03*
Y2985900D02*
D03*
D14*
X3530600Y1511300D02*
D03*
X3429000Y3582100D02*
D03*
D15*
X3530600Y761300D02*
D03*
X3429000Y2832100D02*
D03*
D16*
X4784700Y2972300D02*
D03*
Y3225800D02*
D03*
D17*
Y3479300D02*
D03*
D18*
X4838700Y1600200D02*
D03*
D19*
Y1346200D02*
D03*
Y1092200D02*
D03*
%TF.MD5,9c6fb953b4e7a42301bf0a87bc3c8fc5*%
M02*
