%TF.GenerationSoftware,Altium Limited,Altium Designer,24.0.1 (36)*%
G04 Layer_Color=0*
%FSLAX45Y45*%
%MOMM*%
%TF.SameCoordinates,E673BBFC-20C5-4476-8311-46C70BBC61D0*%
%TF.FilePolarity,Positive*%
%TF.FileFunction,Plated,1,2,PTH,Drill*%
%TF.Part,Single*%
G01*
G75*
%TA.AperFunction,OtherDrill,Pad Free-30 (54.5mm,41mm)*%
%ADD29C,1.20000*%
%TA.AperFunction,OtherDrill,Pad Free-30 (2.5mm,2.5mm)*%
%ADD30C,1.20000*%
%TA.AperFunction,OtherDrill,Pad Free-30 (2.5mm,41mm)*%
%ADD31C,1.20000*%
%TA.AperFunction,OtherDrill,Pad Free-30 (54.5mm,2.5mm)*%
%ADD32C,1.20000*%
%TA.AperFunction,ComponentDrill*%
%ADD33C,1.55000*%
%ADD34C,1.55000*%
%ADD35C,1.00000*%
%TA.AperFunction,OtherDrill,Pad Free-29 (54.483mm,19.685mm)*%
%ADD36C,1.00000*%
%TA.AperFunction,OtherDrill,Pad Free-29 (54.483mm,22.939mm)*%
%ADD37C,1.00000*%
%TA.AperFunction,OtherDrill,Pad Free-29 (54.483mm,26.035mm)*%
%ADD38C,1.00000*%
%TA.AperFunction,OtherDrill,Pad Free-29 (13.807mm,10.72mm)*%
%ADD39C,1.00000*%
%TA.AperFunction,OtherDrill,Pad Free-29 (20.32mm,10.795mm)*%
%ADD40C,1.00000*%
%TA.AperFunction,OtherDrill,Pad Free-29 (6.858mm,7.112mm)*%
%ADD41C,1.00000*%
%TA.AperFunction,ComponentDrill*%
%ADD42C,1.35000*%
%ADD43C,1.00000*%
D29*
X5450000Y4100000D02*
D03*
D30*
X250000Y250000D02*
D03*
D31*
Y4100000D02*
D03*
D32*
X5450000Y250000D02*
D03*
D33*
X1397000Y2985900D02*
D03*
Y1636900D02*
D03*
X558800Y2973200D02*
D03*
Y1624200D02*
D03*
X2209800Y1636900D02*
D03*
Y2985900D02*
D03*
D34*
X684400Y3784600D02*
D03*
X2033400D02*
D03*
D35*
X3530600Y1511300D02*
D03*
Y761300D02*
D03*
X3429000Y3582100D02*
D03*
Y2832100D02*
D03*
D36*
X5448300Y1968500D02*
D03*
D37*
Y2293923D02*
D03*
D38*
Y2603500D02*
D03*
D39*
X1380728Y1071960D02*
D03*
D40*
X2032000Y1079500D02*
D03*
D41*
X685800Y711200D02*
D03*
D42*
X4784700Y2972300D02*
D03*
Y3225800D02*
D03*
Y3479300D02*
D03*
D43*
X4838700Y1600200D02*
D03*
Y1346200D02*
D03*
Y1092200D02*
D03*
%TF.MD5,793c81005357b92b06cfd963fe8963a5*%
M02*
